<svg width="14" height="14" viewBox="0 0 14 14" fill="none" xmlns="http://www.w3.org/2000/svg">
<path d="M1.41942 4.60139V4.60139C1.98214 3.13832 3.13833 1.98213 4.6014 1.41941L4.76724 1.35563C6.13974 0.827744 7.65925 0.827744 9.03175 1.35563V1.35563C10.6004 1.95895 11.84 3.19858 12.4434 4.76723V4.76723C12.9712 6.13973 12.9712 7.65925 12.4434 9.03174V9.03174C11.84 10.6004 10.6004 11.84 9.03175 12.4434V12.4434C7.65925 12.9712 6.13973 12.9712 4.76724 12.4434L4.6014 12.3796C3.13833 11.8168 1.98214 10.6607 1.41942 9.19759V9.19759M1.41942 4.60139L0.535534 2.65685M1.41942 4.60139L3.36396 4.07106" stroke="url(#paint0_linear_67_138)"/>
<defs>
<linearGradient id="paint0_linear_67_138" x1="1.59619" y1="1.59619" x2="11.4957" y2="11.4957" gradientUnits="userSpaceOnUse">
<stop stop-color="#00963C"/>
<stop offset="1" stop-color="#00BF4C"/>
</linearGradient>
</defs>
</svg>
